<svg width="14" height="17" viewBox="0 0 14 17" fill="none" xmlns="http://www.w3.org/2000/svg">
<rect width="14" height="17" fill="#1E1E1E"/>
<rect width="3795" height="3015" transform="translate(-326 -2342)" fill="#2B3446"/>
<g filter="url(#filter0_d_0_1)">
<g clip-path="url(#clip0_0_1)">
<rect x="-215" y="-247" width="360" height="800" rx="30" fill="url(#paint0_linear_0_1)"/>
<path d="M6.66667 8.33333C7.125 8.33333 7.5175 8.17 7.84417 7.84333C8.17028 7.51722 8.33333 7.125 8.33333 6.66667C8.33333 6.20833 8.17028 5.81583 7.84417 5.48917C7.5175 5.16306 7.125 5 6.66667 5C6.20833 5 5.81611 5.16306 5.49 5.48917C5.16333 5.81583 5 6.20833 5 6.66667C5 7.125 5.16333 7.51722 5.49 7.84333C5.81611 8.17 6.20833 8.33333 6.66667 8.33333ZM6.66667 14.4583C8.36111 12.9028 9.61805 11.4894 10.4375 10.2183C11.2569 8.94778 11.6667 7.81944 11.6667 6.83333C11.6667 5.31944 11.1839 4.07972 10.2183 3.11417C9.25333 2.14917 8.06944 1.66667 6.66667 1.66667C5.26389 1.66667 4.07972 2.14917 3.11417 3.11417C2.14917 4.07972 1.66667 5.31944 1.66667 6.83333C1.66667 7.81944 2.07639 8.94778 2.89583 10.2183C3.71528 11.4894 4.97222 12.9028 6.66667 14.4583ZM6.66667 16.6667C4.43056 14.7639 2.76056 12.9964 1.65667 11.3642C0.552222 9.7325 0 8.22222 0 6.83333C0 4.75 0.670278 3.09028 2.01083 1.85417C3.35083 0.618055 4.90278 0 6.66667 0C8.43056 0 9.9825 0.618055 11.3225 1.85417C12.6631 3.09028 13.3333 4.75 13.3333 6.83333C13.3333 8.22222 12.7814 9.7325 11.6775 11.3642C10.5731 12.9964 8.90278 14.7639 6.66667 16.6667Z" fill="white"/>
</g>
</g>
<defs>
<filter id="filter0_d_0_1" x="-219" y="-247" width="368" height="812" filterUnits="userSpaceOnUse" color-interpolation-filters="sRGB">
<feFlood flood-opacity="0" result="BackgroundImageFix"/>
<feColorMatrix in="SourceAlpha" type="matrix" values="0 0 0 0 0 0 0 0 0 0 0 0 0 0 0 0 0 0 127 0" result="hardAlpha"/>
<feOffset dy="8"/>
<feGaussianBlur stdDeviation="2"/>
<feComposite in2="hardAlpha" operator="out"/>
<feColorMatrix type="matrix" values="0 0 0 0 0 0 0 0 0 0 0 0 0 0 0 0 0 0 0.25 0"/>
<feBlend mode="normal" in2="BackgroundImageFix" result="effect1_dropShadow_0_1"/>
<feBlend mode="normal" in="SourceGraphic" in2="effect1_dropShadow_0_1" result="shape"/>
</filter>
<linearGradient id="paint0_linear_0_1" x1="-35" y1="-247" x2="-35" y2="572.5" gradientUnits="userSpaceOnUse">
<stop stop-color="#80C5F7"/>
<stop offset="1" stop-color="#131313"/>
</linearGradient>
<clipPath id="clip0_0_1">
<rect x="-215" y="-247" width="360" height="800" rx="30" fill="white"/>
</clipPath>
</defs>
</svg>
